<?xml version="1.0" encoding="utf-8"?>
<!-- Generator: Adobe Illustrator 20.1.0, SVG Export Plug-In . SVG Version: 6.00 Build 0)  -->
<svg version="1.1" id="Layer_1" xmlns="http://www.w3.org/2000/svg" xmlns:xlink="http://www.w3.org/1999/xlink" x="0px" y="0px"
	 viewBox="0 0 127.5 95.1" style="enable-background:new 0 0 127.5 95.1;" xml:space="preserve">
<style type="text/css">
	.st0{opacity:0.7;fill:#6BCBDB;}
	.st1{fill:#6BCBDB;}
	.st2{opacity:0.67;fill:#6BCBDB;}
	.st3{opacity:0.64;fill:#6BCBDB;}
	.st4{opacity:0.59;fill:none;stroke:#6BCBDB;stroke-width:3;stroke-linecap:round;stroke-linejoin:round;stroke-miterlimit:10;}
	.st5{opacity:0.59;fill:none;stroke:#6BCBDB;stroke-width:6;stroke-linecap:round;stroke-linejoin:round;stroke-miterlimit:10;}
</style>
<g>
	<g>
		<g>
			<g>
				<rect x="56.9" y="63.5" class="st0" width="13.6" height="18.3"/>
				<path class="st1" d="M71.3,75.5H56.2c-1.9,0-3.5-1.6-3.5-3.5l0,0c0-1.9,1.6-3.5,3.5-3.5h15.1c1.9,0,3.5,1.6,3.5,3.5l0,0
					C74.8,74,73.2,75.5,71.3,75.5z"/>
			</g>
			<path class="st2" d="M95.1,95.1c1.1,0,2-1.1,1.6-2.2c-2.5-6.8-16.3-12-33-12s-30.5,5.2-33,12c-0.4,1.1,0.4,2.2,1.6,2.2H95.1z"/>
			<path class="st3" d="M0,0c0,35.2,28.5,63.7,63.7,63.7S127.5,35.2,127.5,0H0z"/>
		</g>
		<g>
			<path class="st4" d="M41.1,89.7c3.3-1.8,8.5-3.3,15.2-3.9"/>
			<path class="st5" d="M63.7,52.9C38.3,52.9,17,34.8,12,10.8"/>
		</g>
	</g>
</g>
</svg>
