<?xml version="1.0" encoding="utf-8"?>
<!-- Generator: Adobe Illustrator 20.1.0, SVG Export Plug-In . SVG Version: 6.00 Build 0)  -->
<svg version="1.1" id="Layer_1" xmlns="http://www.w3.org/2000/svg" xmlns:xlink="http://www.w3.org/1999/xlink" x="0px" y="0px"
	 viewBox="0 0 69.5 116.8" style="enable-background:new 0 0 69.5 116.8;" xml:space="preserve">
<style type="text/css">
	.st0{opacity:0.35;clip-path:url(#SVGID_2_);}
	.st1{fill:none;stroke:#FECB86;stroke-miterlimit:10;}
	.st2{opacity:0.36;fill:none;stroke:#FECB86;stroke-width:6;stroke-linecap:round;stroke-linejoin:round;stroke-miterlimit:10;}
</style>
<g>
	<g>
		<defs>
			<path id="SVGID_1_" d="M69.5,0L37.4,114.8c-0.8,2.7-4.6,2.7-5.4,0L0,0H69.5z"/>
		</defs>
		<use xlink:href="#SVGID_1_"  style="overflow:visible;fill:#FECB86;"/>
		<clipPath id="SVGID_2_">
			<use xlink:href="#SVGID_1_"  style="overflow:visible;"/>
		</clipPath>
		<g class="st0">
			<line class="st1" x1="7.1" y1="-2.1" x2="41.7" y2="121.9"/>
			<line class="st1" x1="17.6" y1="-2.1" x2="52.2" y2="121.9"/>
			<line class="st1" x1="28" y1="-2.1" x2="62.7" y2="121.9"/>
			<line class="st1" x1="38.5" y1="-2.1" x2="73.2" y2="121.9"/>
			<line class="st1" x1="49" y1="-2.1" x2="83.6" y2="121.9"/>
			<line class="st1" x1="59.4" y1="-2.1" x2="94.1" y2="121.9"/>
			<line class="st1" x1="83.6" y1="-2.1" x2="49" y2="121.9"/>
			<line class="st1" x1="73.2" y1="-2.1" x2="38.5" y2="121.9"/>
			<line class="st1" x1="62.7" y1="-2.1" x2="28" y2="121.9"/>
			<line class="st1" x1="52.2" y1="-2.1" x2="17.6" y2="121.9"/>
			<line class="st1" x1="41.7" y1="-2.1" x2="7.1" y2="121.9"/>
			<line class="st1" x1="30.6" y1="-2.1" x2="-4" y2="121.9"/>
			<line class="st1" x1="20.4" y1="-2.1" x2="-14.2" y2="121.9"/>
		</g>
	</g>
	<line class="st2" x1="10.2" y1="12.4" x2="33.6" y2="96.2"/>
</g>
</svg>
