<?xml version="1.0" encoding="utf-8"?>
<!-- Generator: Adobe Illustrator 20.1.0, SVG Export Plug-In . SVG Version: 6.00 Build 0)  -->
<svg version="1.1" id="Layer_1" xmlns="http://www.w3.org/2000/svg" xmlns:xlink="http://www.w3.org/1999/xlink" x="0px" y="0px"
	 viewBox="0 0 102.5 45.3" style="enable-background:new 0 0 102.5 45.3;" xml:space="preserve">
<style type="text/css">
	.st0{clip-path:url(#SVGID_2_);}
	.st1{fill:#DDEFE0;}
	.st2{fill:#B6DDBD;}
	.st3{opacity:0.6;fill:none;stroke:#C6E4CC;stroke-width:7;stroke-linecap:round;stroke-linejoin:round;stroke-miterlimit:10;}
	.st4{fill:#FDF4C9;}
</style>
<g>
	<g>
		<g>
			<g>
				<defs>
					<path id="SVGID_1_" d="M88.9,45.3H15.2c-1.8,0-3.4-1.3-3.9-3L4.2,13.4c-0.6-2.5,1.3-5,3.9-5h88c2.6,0,4.5,2.4,3.9,5l-7.2,28.9
						C92.3,44.1,90.7,45.3,88.9,45.3z"/>
				</defs>
				<use xlink:href="#SVGID_1_"  style="overflow:visible;fill:#C6E4CC;"/>
				<clipPath id="SVGID_2_">
					<use xlink:href="#SVGID_1_"  style="overflow:visible;"/>
				</clipPath>
				<g class="st0">
					<rect x="17.2" y="9.9" class="st1" width="8.9" height="35.4"/>
					<rect x="34.3" y="9.9" class="st1" width="8.9" height="35.4"/>
					<rect x="51.5" y="9.9" class="st1" width="8.9" height="35.4"/>
					<rect x="68.6" y="9.9" class="st1" width="8.9" height="35.4"/>
					<rect x="85.8" y="9.9" class="st1" width="8.9" height="35.4"/>
					<rect y="9.9" class="st1" width="8.9" height="35.4"/>
				</g>
			</g>
			<path class="st2" d="M100.4,12H3.7c-1.1,0-2-0.9-2-2l0,0c0-1.1,0.9-2,2-2h96.8c1.1,0,2,0.9,2,2l0,0C102.5,11,101.5,12,100.4,12z"
				/>
		</g>
		<line class="st3" x1="12.5" y1="18.5" x2="17.5" y2="38.4"/>
	</g>
	<g>
		<path class="st4" d="M81.7,23.9L81.7,23.9c-1.3,0-2.4-1.1-2.4-2.4V8.4c0-1.3,1.1-2.4,2.4-2.4l0,0c1.3,0,2.4,1.1,2.4,2.4v13.1
			C84.1,22.8,83.1,23.9,81.7,23.9z"/>
		<path class="st4" d="M74.9,17.9L74.9,17.9c-1.3,0-2.4-1.1-2.4-2.4V2.4c0-1.3,1.1-2.4,2.4-2.4l0,0c1.3,0,2.4,1.1,2.4,2.4v13.1
			C77.3,16.8,76.2,17.9,74.9,17.9z"/>
	</g>
</g>
</svg>
