<?xml version="1.0" encoding="utf-8"?>
<!-- Generator: Adobe Illustrator 20.1.0, SVG Export Plug-In . SVG Version: 6.00 Build 0)  -->
<svg version="1.1" id="Layer_1" xmlns="http://www.w3.org/2000/svg" xmlns:xlink="http://www.w3.org/1999/xlink" x="0px" y="0px"
	 viewBox="0 0 50.1 61.1" style="enable-background:new 0 0 50.1 61.1;" xml:space="preserve">
<style type="text/css">
	.st0{fill:#F9C4D8;}
	.st1{fill:#C6E4CC;}
	.st2{fill:#FECB86;}
</style>
<g>
	<path class="st0" d="M11.8,35.7L11.8,35.7c-0.6-0.2-0.9-0.8-0.7-1.4l2.2-6.3c0.2-0.6,0.8-0.9,1.4-0.7h0c0.6,0.2,0.9,0.8,0.7,1.4
		L13.3,35C13.1,35.6,12.4,35.9,11.8,35.7z"/>
	<path class="st0" d="M43.9,15.1L43.9,15.1c-0.5,0.3-1.2,0.1-1.5-0.4L39,9c-0.3-0.5-0.1-1.2,0.4-1.5l0,0c0.5-0.3,1.2-0.1,1.5,0.4
		l3.4,5.7C44.6,14.1,44.5,14.8,43.9,15.1z"/>
	<path class="st1" d="M6,23.5L6,23.5c-0.6,0.1-1.2-0.2-1.4-0.8l-1.6-6.4c-0.1-0.6,0.2-1.2,0.8-1.4l0,0c0.6-0.1,1.2,0.2,1.4,0.8
		l1.6,6.4C7,22.8,6.6,23.4,6,23.5z"/>
	<path class="st1" d="M4.5,45.7L4.5,45.7c-0.6,0.3-1.2,0-1.5-0.5l-2.9-6c-0.3-0.6,0-1.2,0.5-1.5l0,0c0.6-0.3,1.2,0,1.5,0.5l2.9,6
		C5.3,44.7,5.1,45.4,4.5,45.7z"/>
	<path class="st2" d="M28.1,61.1L28.1,61.1c-0.6-0.2-0.8-0.9-0.6-1.5l2.5-6.1c0.2-0.6,0.9-0.8,1.5-0.6l0,0c0.6,0.2,0.8,0.9,0.6,1.5
		l-2.5,6.1C29.3,61,28.7,61.3,28.1,61.1z"/>
	<path class="st0" d="M43,55.1L43,55.1c-0.6,0.2-1.2-0.1-1.4-0.7l-2-6.3c-0.2-0.6,0.1-1.2,0.7-1.4l0,0c0.6-0.2,1.2,0.1,1.4,0.7
		l2,6.3C43.9,54.3,43.6,55,43,55.1z"/>
	<path class="st1" d="M16.8,54.5L16.8,54.5c-0.6-0.1-1-0.7-0.9-1.3l1.1-6.6c0.1-0.6,0.7-1,1.3-0.9l0,0c0.6,0.1,1,0.7,0.9,1.3
		l-1.1,6.6C18,54.2,17.4,54.6,16.8,54.5z"/>
	<path class="st1" d="M29.6,36.6L29.6,36.6c-0.5,0.3-1.2,0.1-1.5-0.4l-3.3-5.8c-0.3-0.5-0.1-1.2,0.4-1.5h0c0.5-0.3,1.2-0.1,1.5,0.4
		l3.3,5.8C30.3,35.7,30.2,36.3,29.6,36.6z"/>
	<path class="st2" d="M26.5,17.5L26.5,17.5c0.4-0.5,1.1-0.5,1.6-0.1l5.1,4.3c0.5,0.4,0.5,1.1,0.1,1.6l0,0c-0.4,0.5-1.1,0.5-1.6,0.1
		L26.6,19C26.1,18.6,26.1,17.9,26.5,17.5z"/>
	<path class="st2" d="M46.2,32.6L46.2,32.6c0.6-0.2,1.2,0.1,1.4,0.6l2.4,6.2c0.2,0.6-0.1,1.2-0.6,1.4l0,0c-0.6,0.2-1.2-0.1-1.4-0.6
		l-2.4-6.2C45.4,33.5,45.7,32.9,46.2,32.6z"/>
	<path class="st0" d="M18.6,8L18.6,8c-0.5-0.3-0.8-1-0.5-1.5l3-5.9c0.3-0.5,1-0.8,1.5-0.5l0,0c0.5,0.3,0.8,1,0.5,1.5l-3,5.9
		C19.8,8.1,19.1,8.3,18.6,8z"/>
</g>
</svg>
