<?xml version="1.0" encoding="utf-8"?>
<!-- Generator: Adobe Illustrator 20.1.0, SVG Export Plug-In . SVG Version: 6.00 Build 0)  -->
<svg version="1.1" id="Layer_1" xmlns="http://www.w3.org/2000/svg" xmlns:xlink="http://www.w3.org/1999/xlink" x="0px" y="0px"
	 viewBox="0 0 97.2 92.8" style="enable-background:new 0 0 97.2 92.8;" xml:space="preserve">
<style type="text/css">
	.st0{fill:#FDF4C9;}
	.st1{opacity:0.63;fill:none;stroke:#FDF4C9;stroke-width:7;stroke-linecap:round;stroke-linejoin:round;stroke-miterlimit:10;}
</style>
<g>
	<path class="st0" d="M96.4,53L96.4,53c-1.1-3.5-3.2-6.3-6-8.3c1.6-3.5,1.9-7.6,0.7-11.6l0,0c-2.4-7.7-10-12.4-17.8-11.4
		c0,0,0,0,0,0l0,0c0,0-0.8-18-16.9-21.7c-1.6-0.4-2.8,1.5-1.8,2.7c0.9,1.2,1.5,2.7,1.2,4.6c-0.4,2.6-2.6,4.3-4.7,5.4l-26.2,8.2
		c-8.2,2.6-12.9,11-11.2,19.2l-2.1,0.7C2.9,43.5-2,52.8,0.7,61.4l0,0c1.1,3.5,3.2,6.3,6,8.3C5.1,73.2,4.8,77.3,6,81.3v0
		c2.7,8.6,12,13.5,20.6,10.8l59-18.4C94.3,70.9,99.1,61.6,96.4,53z"/>
	<path class="st1" d="M8.4,54.6C9.3,51,12,48,15.8,46.8l2.1-0.7c2.7-0.8,4.2-3.5,3.6-6.3c-1.2-5.6,2.1-11.2,7.5-12.9l26.2-8.2
		c0.3-0.1,0.5-0.2,0.7-0.3c1.1-0.5,2-1.1,2.8-1.6"/>
</g>
</svg>
